<mxfile host="65bd71144e">
    <diagram id="Lx8uTofC9qlo_GqfUovX" name="Page-1">
        <mxGraphModel dx="3610" dy="6587" grid="1" gridSize="10" guides="1" tooltips="1" connect="1" arrows="1" fold="1" page="1" pageScale="1" pageWidth="850" pageHeight="1100" math="0" shadow="0">
            <root>
                <mxCell id="0"/>
                <mxCell id="1" parent="0"/>
                <mxCell id="29" value="&lt;font style=&quot;font-size: 24px;&quot;&gt;4, &quot;four&lt;/font&gt;&lt;span style=&quot;color: rgb(63, 63, 63); font-size: 24px; background-color: transparent;&quot;&gt;&quot;&lt;/span&gt;" style="rounded=0;whiteSpace=wrap;html=1;fontFamily=Fira Code;fillColor=#f8cecc;strokeColor=#b85450;" parent="1" vertex="1">
                    <mxGeometry x="480" y="2000" width="160" height="40" as="geometry"/>
                </mxCell>
                <mxCell id="31" value="_M_before_begin" style="rounded=0;whiteSpace=wrap;html=1;fontSize=24;fontFamily=Fira Code;fillColor=#fff2cc;strokeColor=#d6b656;" parent="1" vertex="1">
                    <mxGeometry x="160" y="80" width="240" height="40" as="geometry"/>
                </mxCell>
                <mxCell id="32" value="&lt;font style=&quot;font-size: 24px;&quot;&gt;nullptr&lt;/font&gt;" style="rounded=0;whiteSpace=wrap;html=1;fontFamily=Fira Code;fillColor=#f5f5f5;strokeColor=#666666;fontColor=#333333;" parent="1" vertex="1">
                    <mxGeometry x="480" y="80" width="120" height="40" as="geometry"/>
                </mxCell>
                <mxCell id="76" value="_M_before_begin" style="rounded=0;whiteSpace=wrap;html=1;fontSize=24;fontFamily=Fira Code;fillColor=#fff2cc;strokeColor=#d6b656;" parent="1" vertex="1">
                    <mxGeometry x="160" y="1240" width="240" height="40" as="geometry"/>
                </mxCell>
                <mxCell id="77" value="&lt;font style=&quot;font-size: 24px;&quot;&gt;1, &quot;one&quot;&lt;/font&gt;" style="rounded=0;whiteSpace=wrap;html=1;fontFamily=Fira Code;fillColor=#f8cecc;strokeColor=#b85450;" parent="1" vertex="1">
                    <mxGeometry x="480" y="1240" width="160" height="40" as="geometry"/>
                </mxCell>
                <mxCell id="60" value="&lt;span style=&quot;color: rgb(0, 0, 0); font-size: 24px;&quot;&gt;idx: 11&lt;/span&gt;" style="rounded=0;whiteSpace=wrap;html=1;fontFamily=Fira Code;fillColor=#dae8fc;strokeColor=#6c8ebf;" parent="1" vertex="1">
                    <mxGeometry y="200" width="120" height="40" as="geometry"/>
                </mxCell>
                <mxCell id="79" value="&lt;span style=&quot;color: rgb(0, 0, 0); font-size: 24px;&quot;&gt;idx: 10&lt;/span&gt;" style="rounded=0;whiteSpace=wrap;html=1;fontFamily=Fira Code;fillColor=#dae8fc;strokeColor=#6c8ebf;" parent="1" vertex="1">
                    <mxGeometry y="160" width="120" height="40" as="geometry"/>
                </mxCell>
                <mxCell id="80" value="&lt;span style=&quot;color: rgb(0, 0, 0); font-size: 24px;&quot;&gt;idx: 12&lt;/span&gt;" style="rounded=0;whiteSpace=wrap;html=1;fontFamily=Fira Code;fillColor=#dae8fc;strokeColor=#6c8ebf;" parent="1" vertex="1">
                    <mxGeometry y="240" width="120" height="40" as="geometry"/>
                </mxCell>
                <mxCell id="81" value="&lt;span style=&quot;color: rgb(0, 0, 0); font-size: 24px;&quot;&gt;idx: 8&lt;/span&gt;" style="rounded=0;whiteSpace=wrap;html=1;fontFamily=Fira Code;fillColor=#dae8fc;strokeColor=#6c8ebf;" parent="1" vertex="1">
                    <mxGeometry y="80" width="120" height="40" as="geometry"/>
                </mxCell>
                <mxCell id="82" value="&lt;span style=&quot;color: rgb(0, 0, 0); font-size: 24px;&quot;&gt;idx: 7&lt;/span&gt;" style="rounded=0;whiteSpace=wrap;html=1;fontFamily=Fira Code;fillColor=#dae8fc;strokeColor=#6c8ebf;" parent="1" vertex="1">
                    <mxGeometry y="40" width="120" height="40" as="geometry"/>
                </mxCell>
                <mxCell id="83" value="&lt;span style=&quot;color: rgb(0, 0, 0); font-size: 24px;&quot;&gt;idx: 9&lt;/span&gt;" style="rounded=0;whiteSpace=wrap;html=1;fontFamily=Fira Code;fillColor=#dae8fc;strokeColor=#6c8ebf;" parent="1" vertex="1">
                    <mxGeometry y="120" width="120" height="40" as="geometry"/>
                </mxCell>
                <mxCell id="84" value="&lt;span style=&quot;color: rgb(0, 0, 0); font-size: 24px;&quot;&gt;idx: 5&lt;/span&gt;" style="rounded=0;whiteSpace=wrap;html=1;fontFamily=Fira Code;fillColor=#dae8fc;strokeColor=#6c8ebf;" parent="1" vertex="1">
                    <mxGeometry y="-40" width="120" height="40" as="geometry"/>
                </mxCell>
                <mxCell id="85" value="&lt;span style=&quot;color: rgb(0, 0, 0); font-size: 24px;&quot;&gt;idx: 4&lt;/span&gt;" style="rounded=0;whiteSpace=wrap;html=1;fontFamily=Fira Code;fillColor=#dae8fc;strokeColor=#6c8ebf;" parent="1" vertex="1">
                    <mxGeometry y="-80" width="120" height="40" as="geometry"/>
                </mxCell>
                <mxCell id="86" value="&lt;span style=&quot;color: rgb(0, 0, 0); font-size: 24px;&quot;&gt;idx: 6&lt;/span&gt;" style="rounded=0;whiteSpace=wrap;html=1;fontFamily=Fira Code;fillColor=#dae8fc;strokeColor=#6c8ebf;" parent="1" vertex="1">
                    <mxGeometry width="120" height="40" as="geometry"/>
                </mxCell>
                <mxCell id="87" value="&lt;span style=&quot;color: rgb(0, 0, 0); font-size: 24px;&quot;&gt;idx: 2&lt;/span&gt;" style="rounded=0;whiteSpace=wrap;html=1;fontFamily=Fira Code;fillColor=#dae8fc;strokeColor=#6c8ebf;" parent="1" vertex="1">
                    <mxGeometry y="-160" width="120" height="40" as="geometry"/>
                </mxCell>
                <mxCell id="88" value="&lt;span style=&quot;color: rgb(0, 0, 0); font-size: 24px;&quot;&gt;idx: 1&lt;/span&gt;" style="rounded=0;whiteSpace=wrap;html=1;fontFamily=Fira Code;fillColor=#dae8fc;strokeColor=#6c8ebf;" parent="1" vertex="1">
                    <mxGeometry y="-200" width="120" height="40" as="geometry"/>
                </mxCell>
                <mxCell id="89" value="&lt;span style=&quot;color: rgb(0, 0, 0); font-size: 24px;&quot;&gt;idx: 3&lt;/span&gt;" style="rounded=0;whiteSpace=wrap;html=1;fontFamily=Fira Code;fillColor=#dae8fc;strokeColor=#6c8ebf;" parent="1" vertex="1">
                    <mxGeometry y="-120" width="120" height="40" as="geometry"/>
                </mxCell>
                <mxCell id="90" value="&lt;span style=&quot;color: rgb(0, 0, 0); font-size: 24px;&quot;&gt;idx: 0&lt;/span&gt;" style="rounded=0;whiteSpace=wrap;html=1;fontFamily=Fira Code;fillColor=#dae8fc;strokeColor=#6c8ebf;" parent="1" vertex="1">
                    <mxGeometry y="-240" width="120" height="40" as="geometry"/>
                </mxCell>
                <mxCell id="91" value="_M_buckets" style="text;html=1;align=center;verticalAlign=middle;whiteSpace=wrap;rounded=0;fontSize=36;fontFamily=Fira Code;" parent="1" vertex="1">
                    <mxGeometry x="-190" y="-270" width="160" height="30" as="geometry"/>
                </mxCell>
                <mxCell id="107" value="&lt;span style=&quot;color: rgb(0, 0, 0); font-size: 24px;&quot;&gt;idx: 11&lt;/span&gt;" style="rounded=0;whiteSpace=wrap;html=1;fontFamily=Fira Code;fillColor=#dae8fc;strokeColor=#6c8ebf;" parent="1" vertex="1">
                    <mxGeometry y="1640" width="120" height="40" as="geometry"/>
                </mxCell>
                <mxCell id="108" value="&lt;span style=&quot;color: rgb(0, 0, 0); font-size: 24px;&quot;&gt;idx: 10&lt;/span&gt;" style="rounded=0;whiteSpace=wrap;html=1;fontFamily=Fira Code;fillColor=#dae8fc;strokeColor=#6c8ebf;" parent="1" vertex="1">
                    <mxGeometry y="1600" width="120" height="40" as="geometry"/>
                </mxCell>
                <mxCell id="109" value="&lt;span style=&quot;color: rgb(0, 0, 0); font-size: 24px;&quot;&gt;idx: 12&lt;/span&gt;" style="rounded=0;whiteSpace=wrap;html=1;fontFamily=Fira Code;fillColor=#dae8fc;strokeColor=#6c8ebf;" parent="1" vertex="1">
                    <mxGeometry y="1680" width="120" height="40" as="geometry"/>
                </mxCell>
                <mxCell id="110" value="&lt;span style=&quot;color: rgb(0, 0, 0); font-size: 24px;&quot;&gt;idx: 8&lt;/span&gt;" style="rounded=0;whiteSpace=wrap;html=1;fontFamily=Fira Code;fillColor=#dae8fc;strokeColor=#6c8ebf;" parent="1" vertex="1">
                    <mxGeometry y="1520" width="120" height="40" as="geometry"/>
                </mxCell>
                <mxCell id="111" value="&lt;span style=&quot;color: rgb(0, 0, 0); font-size: 24px;&quot;&gt;idx: 7&lt;/span&gt;" style="rounded=0;whiteSpace=wrap;html=1;fontFamily=Fira Code;fillColor=#dae8fc;strokeColor=#6c8ebf;" parent="1" vertex="1">
                    <mxGeometry y="1480" width="120" height="40" as="geometry"/>
                </mxCell>
                <mxCell id="112" value="&lt;span style=&quot;color: rgb(0, 0, 0); font-size: 24px;&quot;&gt;idx: 9&lt;/span&gt;" style="rounded=0;whiteSpace=wrap;html=1;fontFamily=Fira Code;fillColor=#dae8fc;strokeColor=#6c8ebf;" parent="1" vertex="1">
                    <mxGeometry y="1560" width="120" height="40" as="geometry"/>
                </mxCell>
                <mxCell id="113" value="&lt;span style=&quot;color: rgb(0, 0, 0); font-size: 24px;&quot;&gt;idx: 5&lt;/span&gt;" style="rounded=0;whiteSpace=wrap;html=1;fontFamily=Fira Code;fillColor=#dae8fc;strokeColor=#6c8ebf;" parent="1" vertex="1">
                    <mxGeometry y="1400" width="120" height="40" as="geometry"/>
                </mxCell>
                <mxCell id="114" value="&lt;span style=&quot;color: rgb(0, 0, 0); font-size: 24px;&quot;&gt;idx: 4&lt;/span&gt;" style="rounded=0;whiteSpace=wrap;html=1;fontFamily=Fira Code;fillColor=#dae8fc;strokeColor=#6c8ebf;" parent="1" vertex="1">
                    <mxGeometry y="1360" width="120" height="40" as="geometry"/>
                </mxCell>
                <mxCell id="115" value="&lt;span style=&quot;color: rgb(0, 0, 0); font-size: 24px;&quot;&gt;idx: 6&lt;/span&gt;" style="rounded=0;whiteSpace=wrap;html=1;fontFamily=Fira Code;fillColor=#dae8fc;strokeColor=#6c8ebf;" parent="1" vertex="1">
                    <mxGeometry y="1440" width="120" height="40" as="geometry"/>
                </mxCell>
                <mxCell id="116" value="&lt;span style=&quot;color: rgb(0, 0, 0); font-size: 24px;&quot;&gt;idx: 2&lt;/span&gt;" style="rounded=0;whiteSpace=wrap;html=1;fontFamily=Fira Code;fillColor=#dae8fc;strokeColor=#6c8ebf;" parent="1" vertex="1">
                    <mxGeometry y="1280" width="120" height="40" as="geometry"/>
                </mxCell>
                <mxCell id="225" style="edgeStyle=none;html=1;entryX=0;entryY=0.5;entryDx=0;entryDy=0;" parent="1" source="117" target="76" edge="1">
                    <mxGeometry relative="1" as="geometry"/>
                </mxCell>
                <mxCell id="117" value="&lt;span style=&quot;color: rgb(0, 0, 0); font-size: 24px;&quot;&gt;idx: 1&lt;/span&gt;" style="rounded=0;whiteSpace=wrap;html=1;fontFamily=Fira Code;fillColor=#dae8fc;strokeColor=#6c8ebf;" parent="1" vertex="1">
                    <mxGeometry y="1240" width="120" height="40" as="geometry"/>
                </mxCell>
                <mxCell id="118" value="&lt;span style=&quot;color: rgb(0, 0, 0); font-size: 24px;&quot;&gt;idx: 3&lt;/span&gt;" style="rounded=0;whiteSpace=wrap;html=1;fontFamily=Fira Code;fillColor=#dae8fc;strokeColor=#6c8ebf;" parent="1" vertex="1">
                    <mxGeometry y="1320" width="120" height="40" as="geometry"/>
                </mxCell>
                <mxCell id="119" value="&lt;span style=&quot;color: rgb(0, 0, 0); font-size: 24px;&quot;&gt;idx: 0&lt;/span&gt;" style="rounded=0;whiteSpace=wrap;html=1;fontFamily=Fira Code;fillColor=#dae8fc;strokeColor=#6c8ebf;" parent="1" vertex="1">
                    <mxGeometry y="1200" width="120" height="40" as="geometry"/>
                </mxCell>
                <mxCell id="120" value="_M_buckets" style="text;html=1;align=center;verticalAlign=middle;whiteSpace=wrap;rounded=0;fontSize=36;fontFamily=Fira Code;" parent="1" vertex="1">
                    <mxGeometry x="-190" y="1170" width="160" height="30" as="geometry"/>
                </mxCell>
                <mxCell id="122" value="_M_before_begin" style="rounded=0;whiteSpace=wrap;html=1;fontSize=24;fontFamily=Fira Code;fillColor=#fff2cc;strokeColor=#d6b656;" parent="1" vertex="1">
                    <mxGeometry x="160" y="2000" width="240" height="40" as="geometry"/>
                </mxCell>
                <mxCell id="123" value="&lt;font style=&quot;font-size: 24px;&quot;&gt;1, &quot;one&quot;&lt;/font&gt;" style="rounded=0;whiteSpace=wrap;html=1;fontFamily=Fira Code;fillColor=#d5e8d4;strokeColor=#82b366;" parent="1" vertex="1">
                    <mxGeometry x="720" y="2000" width="160" height="40" as="geometry"/>
                </mxCell>
                <mxCell id="124" value="&lt;span style=&quot;color: rgb(0, 0, 0); font-size: 24px;&quot;&gt;idx: 11&lt;/span&gt;" style="rounded=0;whiteSpace=wrap;html=1;fontFamily=Fira Code;fillColor=#dae8fc;strokeColor=#6c8ebf;" parent="1" vertex="1">
                    <mxGeometry y="2400" width="120" height="40" as="geometry"/>
                </mxCell>
                <mxCell id="125" value="&lt;span style=&quot;color: rgb(0, 0, 0); font-size: 24px;&quot;&gt;idx: 10&lt;/span&gt;" style="rounded=0;whiteSpace=wrap;html=1;fontFamily=Fira Code;fillColor=#dae8fc;strokeColor=#6c8ebf;" parent="1" vertex="1">
                    <mxGeometry y="2360" width="120" height="40" as="geometry"/>
                </mxCell>
                <mxCell id="126" value="&lt;span style=&quot;color: rgb(0, 0, 0); font-size: 24px;&quot;&gt;idx: 12&lt;/span&gt;" style="rounded=0;whiteSpace=wrap;html=1;fontFamily=Fira Code;fillColor=#dae8fc;strokeColor=#6c8ebf;" parent="1" vertex="1">
                    <mxGeometry y="2440" width="120" height="40" as="geometry"/>
                </mxCell>
                <mxCell id="127" value="&lt;span style=&quot;color: rgb(0, 0, 0); font-size: 24px;&quot;&gt;idx: 8&lt;/span&gt;" style="rounded=0;whiteSpace=wrap;html=1;fontFamily=Fira Code;fillColor=#dae8fc;strokeColor=#6c8ebf;" parent="1" vertex="1">
                    <mxGeometry y="2280" width="120" height="40" as="geometry"/>
                </mxCell>
                <mxCell id="128" value="&lt;span style=&quot;color: rgb(0, 0, 0); font-size: 24px;&quot;&gt;idx: 7&lt;/span&gt;" style="rounded=0;whiteSpace=wrap;html=1;fontFamily=Fira Code;fillColor=#dae8fc;strokeColor=#6c8ebf;" parent="1" vertex="1">
                    <mxGeometry y="2240" width="120" height="40" as="geometry"/>
                </mxCell>
                <mxCell id="129" value="&lt;span style=&quot;color: rgb(0, 0, 0); font-size: 24px;&quot;&gt;idx: 9&lt;/span&gt;" style="rounded=0;whiteSpace=wrap;html=1;fontFamily=Fira Code;fillColor=#dae8fc;strokeColor=#6c8ebf;" parent="1" vertex="1">
                    <mxGeometry y="2320" width="120" height="40" as="geometry"/>
                </mxCell>
                <mxCell id="130" value="&lt;span style=&quot;color: rgb(0, 0, 0); font-size: 24px;&quot;&gt;idx: 5&lt;/span&gt;" style="rounded=0;whiteSpace=wrap;html=1;fontFamily=Fira Code;fillColor=#dae8fc;strokeColor=#6c8ebf;" parent="1" vertex="1">
                    <mxGeometry y="2160" width="120" height="40" as="geometry"/>
                </mxCell>
                <mxCell id="131" value="&lt;span style=&quot;color: rgb(0, 0, 0); font-size: 24px;&quot;&gt;idx: 4&lt;/span&gt;" style="rounded=0;whiteSpace=wrap;html=1;fontFamily=Fira Code;fillColor=#dae8fc;strokeColor=#6c8ebf;" parent="1" vertex="1">
                    <mxGeometry y="2120" width="120" height="40" as="geometry"/>
                </mxCell>
                <mxCell id="132" value="&lt;span style=&quot;color: rgb(0, 0, 0); font-size: 24px;&quot;&gt;idx: 6&lt;/span&gt;" style="rounded=0;whiteSpace=wrap;html=1;fontFamily=Fira Code;fillColor=#dae8fc;strokeColor=#6c8ebf;" parent="1" vertex="1">
                    <mxGeometry y="2200" width="120" height="40" as="geometry"/>
                </mxCell>
                <mxCell id="133" value="&lt;span style=&quot;color: rgb(0, 0, 0); font-size: 24px;&quot;&gt;idx: 2&lt;/span&gt;" style="rounded=0;whiteSpace=wrap;html=1;fontFamily=Fira Code;fillColor=#dae8fc;strokeColor=#6c8ebf;" parent="1" vertex="1">
                    <mxGeometry y="2040" width="120" height="40" as="geometry"/>
                </mxCell>
                <mxCell id="134" style="edgeStyle=none;html=1;entryX=0;entryY=0.5;entryDx=0;entryDy=0;exitX=1;exitY=0.5;exitDx=0;exitDy=0;" parent="1" source="135" target="122" edge="1">
                    <mxGeometry relative="1" as="geometry"/>
                </mxCell>
                <mxCell id="135" value="&lt;span style=&quot;color: rgb(0, 0, 0); font-size: 24px;&quot;&gt;idx: 1&lt;/span&gt;" style="rounded=0;whiteSpace=wrap;html=1;fontFamily=Fira Code;fillColor=#dae8fc;strokeColor=#6c8ebf;" parent="1" vertex="1">
                    <mxGeometry y="2000" width="120" height="40" as="geometry"/>
                </mxCell>
                <mxCell id="136" value="&lt;span style=&quot;color: rgb(0, 0, 0); font-size: 24px;&quot;&gt;idx: 3&lt;/span&gt;" style="rounded=0;whiteSpace=wrap;html=1;fontFamily=Fira Code;fillColor=#dae8fc;strokeColor=#6c8ebf;" parent="1" vertex="1">
                    <mxGeometry y="2080" width="120" height="40" as="geometry"/>
                </mxCell>
                <mxCell id="137" value="&lt;span style=&quot;color: rgb(0, 0, 0); font-size: 24px;&quot;&gt;idx: 0&lt;/span&gt;" style="rounded=0;whiteSpace=wrap;html=1;fontFamily=Fira Code;fillColor=#dae8fc;strokeColor=#6c8ebf;" parent="1" vertex="1">
                    <mxGeometry y="1960" width="120" height="40" as="geometry"/>
                </mxCell>
                <mxCell id="138" value="_M_buckets" style="text;html=1;align=center;verticalAlign=middle;whiteSpace=wrap;rounded=0;fontSize=36;fontFamily=Fira Code;" parent="1" vertex="1">
                    <mxGeometry x="-190" y="1930" width="160" height="30" as="geometry"/>
                </mxCell>
                <mxCell id="157" value="&lt;font style=&quot;font-size: 24px;&quot;&gt;nullptr&lt;/font&gt;" style="rounded=0;whiteSpace=wrap;html=1;fontFamily=Fira Code;fillColor=#f5f5f5;fontColor=#333333;strokeColor=#666666;" parent="1" vertex="1">
                    <mxGeometry x="720" y="1240" width="120" height="40" as="geometry"/>
                </mxCell>
                <mxCell id="179" value="&lt;font style=&quot;font-size: 24px;&quot;&gt;nullptr&lt;/font&gt;" style="rounded=0;whiteSpace=wrap;html=1;fontFamily=Fira Code;fillColor=#f5f5f5;fontColor=#333333;strokeColor=#666666;" parent="1" vertex="1">
                    <mxGeometry x="960" y="2000" width="120" height="40" as="geometry"/>
                </mxCell>
                <mxCell id="183" value="__node" style="rounded=0;whiteSpace=wrap;html=1;fillColor=#f8cecc;strokeColor=#b85450;fontSize=24;fontFamily=Fira Code;" parent="1" vertex="1">
                    <mxGeometry x="480" y="1960" width="200" height="40" as="geometry"/>
                </mxCell>
                <mxCell id="184" value="__node" style="rounded=0;whiteSpace=wrap;html=1;fillColor=#f8cecc;strokeColor=#b85450;fontSize=24;fontFamily=Fira Code;" parent="1" vertex="1">
                    <mxGeometry x="480" y="1200" width="200" height="40" as="geometry"/>
                </mxCell>
                <mxCell id="195" value="_M_before_begin" style="rounded=0;whiteSpace=wrap;html=1;fontSize=24;fontFamily=Fira Code;fillColor=#fff2cc;strokeColor=#d6b656;" parent="1" vertex="1">
                    <mxGeometry x="160" y="680" width="240" height="40" as="geometry"/>
                </mxCell>
                <mxCell id="197" value="&lt;font style=&quot;font-size: 24px;&quot;&gt;1, &quot;one&quot;&lt;/font&gt;" style="rounded=0;whiteSpace=wrap;html=1;fontFamily=Fira Code;fillColor=#f8cecc;strokeColor=#b85450;" parent="1" vertex="1">
                    <mxGeometry x="480" y="680" width="160" height="40" as="geometry"/>
                </mxCell>
                <mxCell id="198" value="&lt;span style=&quot;color: rgb(0, 0, 0); font-size: 24px;&quot;&gt;idx: 11&lt;/span&gt;" style="rounded=0;whiteSpace=wrap;html=1;fontFamily=Fira Code;fillColor=#dae8fc;strokeColor=#6c8ebf;" parent="1" vertex="1">
                    <mxGeometry y="920" width="120" height="40" as="geometry"/>
                </mxCell>
                <mxCell id="199" value="&lt;span style=&quot;color: rgb(0, 0, 0); font-size: 24px;&quot;&gt;idx: 10&lt;/span&gt;" style="rounded=0;whiteSpace=wrap;html=1;fontFamily=Fira Code;fillColor=#dae8fc;strokeColor=#6c8ebf;" parent="1" vertex="1">
                    <mxGeometry y="880" width="120" height="40" as="geometry"/>
                </mxCell>
                <mxCell id="200" value="&lt;span style=&quot;color: rgb(0, 0, 0); font-size: 24px;&quot;&gt;idx: 12&lt;/span&gt;" style="rounded=0;whiteSpace=wrap;html=1;fontFamily=Fira Code;fillColor=#dae8fc;strokeColor=#6c8ebf;" parent="1" vertex="1">
                    <mxGeometry y="960" width="120" height="40" as="geometry"/>
                </mxCell>
                <mxCell id="201" value="&lt;span style=&quot;color: rgb(0, 0, 0); font-size: 24px;&quot;&gt;idx: 8&lt;/span&gt;" style="rounded=0;whiteSpace=wrap;html=1;fontFamily=Fira Code;fillColor=#dae8fc;strokeColor=#6c8ebf;" parent="1" vertex="1">
                    <mxGeometry y="800" width="120" height="40" as="geometry"/>
                </mxCell>
                <mxCell id="202" value="&lt;span style=&quot;color: rgb(0, 0, 0); font-size: 24px;&quot;&gt;idx: 7&lt;/span&gt;" style="rounded=0;whiteSpace=wrap;html=1;fontFamily=Fira Code;fillColor=#dae8fc;strokeColor=#6c8ebf;" parent="1" vertex="1">
                    <mxGeometry y="760" width="120" height="40" as="geometry"/>
                </mxCell>
                <mxCell id="203" value="&lt;span style=&quot;color: rgb(0, 0, 0); font-size: 24px;&quot;&gt;idx: 9&lt;/span&gt;" style="rounded=0;whiteSpace=wrap;html=1;fontFamily=Fira Code;fillColor=#dae8fc;strokeColor=#6c8ebf;" parent="1" vertex="1">
                    <mxGeometry y="840" width="120" height="40" as="geometry"/>
                </mxCell>
                <mxCell id="204" value="&lt;span style=&quot;color: rgb(0, 0, 0); font-size: 24px;&quot;&gt;idx: 5&lt;/span&gt;" style="rounded=0;whiteSpace=wrap;html=1;fontFamily=Fira Code;fillColor=#dae8fc;strokeColor=#6c8ebf;" parent="1" vertex="1">
                    <mxGeometry y="680" width="120" height="40" as="geometry"/>
                </mxCell>
                <mxCell id="205" value="&lt;span style=&quot;color: rgb(0, 0, 0); font-size: 24px;&quot;&gt;idx: 4&lt;/span&gt;" style="rounded=0;whiteSpace=wrap;html=1;fontFamily=Fira Code;fillColor=#dae8fc;strokeColor=#6c8ebf;" parent="1" vertex="1">
                    <mxGeometry y="640" width="120" height="40" as="geometry"/>
                </mxCell>
                <mxCell id="206" value="&lt;span style=&quot;color: rgb(0, 0, 0); font-size: 24px;&quot;&gt;idx: 6&lt;/span&gt;" style="rounded=0;whiteSpace=wrap;html=1;fontFamily=Fira Code;fillColor=#dae8fc;strokeColor=#6c8ebf;" parent="1" vertex="1">
                    <mxGeometry y="720" width="120" height="40" as="geometry"/>
                </mxCell>
                <mxCell id="207" value="&lt;span style=&quot;color: rgb(0, 0, 0); font-size: 24px;&quot;&gt;idx: 2&lt;/span&gt;" style="rounded=0;whiteSpace=wrap;html=1;fontFamily=Fira Code;fillColor=#dae8fc;strokeColor=#6c8ebf;" parent="1" vertex="1">
                    <mxGeometry y="560" width="120" height="40" as="geometry"/>
                </mxCell>
                <mxCell id="209" value="&lt;span style=&quot;color: rgb(0, 0, 0); font-size: 24px;&quot;&gt;idx: 1&lt;/span&gt;" style="rounded=0;whiteSpace=wrap;html=1;fontFamily=Fira Code;fillColor=#dae8fc;strokeColor=#6c8ebf;" parent="1" vertex="1">
                    <mxGeometry y="520" width="120" height="40" as="geometry"/>
                </mxCell>
                <mxCell id="210" value="&lt;span style=&quot;color: rgb(0, 0, 0); font-size: 24px;&quot;&gt;idx: 3&lt;/span&gt;" style="rounded=0;whiteSpace=wrap;html=1;fontFamily=Fira Code;fillColor=#dae8fc;strokeColor=#6c8ebf;" parent="1" vertex="1">
                    <mxGeometry y="600" width="120" height="40" as="geometry"/>
                </mxCell>
                <mxCell id="211" value="&lt;span style=&quot;color: rgb(0, 0, 0); font-size: 24px;&quot;&gt;idx: 0&lt;/span&gt;" style="rounded=0;whiteSpace=wrap;html=1;fontFamily=Fira Code;fillColor=#dae8fc;strokeColor=#6c8ebf;" parent="1" vertex="1">
                    <mxGeometry y="480" width="120" height="40" as="geometry"/>
                </mxCell>
                <mxCell id="212" value="_M_buckets" style="text;html=1;align=center;verticalAlign=middle;whiteSpace=wrap;rounded=0;fontSize=36;fontFamily=Fira Code;" parent="1" vertex="1">
                    <mxGeometry x="-190" y="450" width="160" height="30" as="geometry"/>
                </mxCell>
                <mxCell id="213" value="&lt;font style=&quot;font-size: 24px;&quot;&gt;nullptr&lt;/font&gt;" style="rounded=0;whiteSpace=wrap;html=1;fontFamily=Fira Code;fillColor=#f5f5f5;fontColor=#333333;strokeColor=#666666;" parent="1" vertex="1">
                    <mxGeometry x="720" y="680" width="120" height="40" as="geometry"/>
                </mxCell>
                <mxCell id="214" value="__node" style="rounded=0;whiteSpace=wrap;html=1;fillColor=#f8cecc;strokeColor=#b85450;fontSize=24;fontFamily=Fira Code;" parent="1" vertex="1">
                    <mxGeometry x="480" y="640" width="200" height="40" as="geometry"/>
                </mxCell>
                <mxCell id="215" value="&lt;font style=&quot;font-size: 24px;&quot;&gt;插入新节点(1, &quot;one&quot;)，插入到_M_before_begin的之后，头插法&lt;/font&gt;" style="text;html=1;align=center;verticalAlign=middle;resizable=0;points=[];autosize=1;strokeColor=none;fillColor=none;" parent="1" vertex="1">
                    <mxGeometry x="160" y="400" width="690" height="40" as="geometry"/>
                </mxCell>
                <mxCell id="217" style="edgeStyle=none;html=1;entryX=0;entryY=0.5;entryDx=0;entryDy=0;" parent="1" source="216" target="32" edge="1">
                    <mxGeometry relative="1" as="geometry"/>
                </mxCell>
                <mxCell id="216" value="&lt;font face=&quot;Fira Code&quot; style=&quot;font-size: 24px;&quot;&gt;nxt&lt;/font&gt;" style="rounded=0;whiteSpace=wrap;html=1;fillColor=#e1d5e7;strokeColor=#9673a6;" parent="1" vertex="1">
                    <mxGeometry x="400" y="80" width="40" height="40" as="geometry"/>
                </mxCell>
                <mxCell id="220" style="edgeStyle=none;html=1;" parent="1" source="218" target="197" edge="1">
                    <mxGeometry relative="1" as="geometry"/>
                </mxCell>
                <mxCell id="218" value="&lt;font face=&quot;Fira Code&quot; style=&quot;font-size: 24px;&quot;&gt;nxt&lt;/font&gt;" style="rounded=0;whiteSpace=wrap;html=1;fillColor=#e1d5e7;strokeColor=#9673a6;" parent="1" vertex="1">
                    <mxGeometry x="400" y="680" width="40" height="40" as="geometry"/>
                </mxCell>
                <mxCell id="221" style="edgeStyle=none;html=1;entryX=0;entryY=0.5;entryDx=0;entryDy=0;" parent="1" source="219" target="213" edge="1">
                    <mxGeometry relative="1" as="geometry"/>
                </mxCell>
                <mxCell id="219" value="&lt;font face=&quot;Fira Code&quot; style=&quot;font-size: 24px;&quot;&gt;nxt&lt;/font&gt;" style="rounded=0;whiteSpace=wrap;html=1;fillColor=#e1d5e7;strokeColor=#9673a6;" parent="1" vertex="1">
                    <mxGeometry x="640" y="680" width="40" height="40" as="geometry"/>
                </mxCell>
                <mxCell id="226" style="edgeStyle=none;html=1;entryX=0;entryY=0.5;entryDx=0;entryDy=0;" parent="1" source="222" target="157" edge="1">
                    <mxGeometry relative="1" as="geometry"/>
                </mxCell>
                <mxCell id="222" value="&lt;font face=&quot;Fira Code&quot; style=&quot;font-size: 24px;&quot;&gt;nxt&lt;/font&gt;" style="rounded=0;whiteSpace=wrap;html=1;fillColor=#e1d5e7;strokeColor=#9673a6;" parent="1" vertex="1">
                    <mxGeometry x="640" y="1240" width="40" height="40" as="geometry"/>
                </mxCell>
                <mxCell id="224" style="edgeStyle=none;html=1;" parent="1" source="223" target="77" edge="1">
                    <mxGeometry relative="1" as="geometry"/>
                </mxCell>
                <mxCell id="223" value="&lt;font face=&quot;Fira Code&quot; style=&quot;font-size: 24px;&quot;&gt;nxt&lt;/font&gt;" style="rounded=0;whiteSpace=wrap;html=1;fillColor=#e1d5e7;strokeColor=#9673a6;" parent="1" vertex="1">
                    <mxGeometry x="400" y="1240" width="40" height="40" as="geometry"/>
                </mxCell>
                <mxCell id="228" style="edgeStyle=none;html=1;entryX=0;entryY=0.5;entryDx=0;entryDy=0;" parent="1" source="227" target="179" edge="1">
                    <mxGeometry relative="1" as="geometry"/>
                </mxCell>
                <mxCell id="227" value="&lt;font face=&quot;Fira Code&quot; style=&quot;font-size: 24px;&quot;&gt;nxt&lt;/font&gt;" style="rounded=0;whiteSpace=wrap;html=1;fillColor=#e1d5e7;strokeColor=#9673a6;" parent="1" vertex="1">
                    <mxGeometry x="880" y="2000" width="40" height="40" as="geometry"/>
                </mxCell>
                <mxCell id="231" style="edgeStyle=none;html=1;exitX=1;exitY=0.5;exitDx=0;exitDy=0;entryX=0;entryY=0.5;entryDx=0;entryDy=0;" parent="1" source="229" target="123" edge="1">
                    <mxGeometry relative="1" as="geometry">
                        <mxPoint x="715" y="1990" as="targetPoint"/>
                    </mxGeometry>
                </mxCell>
                <mxCell id="229" value="&lt;font face=&quot;Fira Code&quot; style=&quot;font-size: 24px;&quot;&gt;nxt&lt;/font&gt;" style="rounded=0;whiteSpace=wrap;html=1;fillColor=#e1d5e7;strokeColor=#9673a6;" parent="1" vertex="1">
                    <mxGeometry x="640" y="2000" width="40" height="40" as="geometry"/>
                </mxCell>
                <mxCell id="233" style="edgeStyle=none;html=1;entryX=0;entryY=0.5;entryDx=0;entryDy=0;" parent="1" source="232" target="29" edge="1">
                    <mxGeometry relative="1" as="geometry"/>
                </mxCell>
                <mxCell id="232" value="&lt;font face=&quot;Fira Code&quot; style=&quot;font-size: 24px;&quot;&gt;nxt&lt;/font&gt;" style="rounded=0;whiteSpace=wrap;html=1;fillColor=#e1d5e7;strokeColor=#9673a6;" parent="1" vertex="1">
                    <mxGeometry x="400" y="2000" width="40" height="40" as="geometry"/>
                </mxCell>
                <mxCell id="234" value="&lt;font style=&quot;font-size: 24px;&quot;&gt;4, &quot;four&lt;/font&gt;&lt;span style=&quot;color: rgb(63, 63, 63); font-size: 24px; background-color: transparent;&quot;&gt;&quot;&lt;/span&gt;" style="rounded=0;whiteSpace=wrap;html=1;fontFamily=Fira Code;fillColor=#f8cecc;strokeColor=#b85450;" parent="1" vertex="1">
                    <mxGeometry x="560" y="2880" width="160" height="40" as="geometry"/>
                </mxCell>
                <mxCell id="235" value="_M_before_begin" style="rounded=0;whiteSpace=wrap;html=1;fontSize=24;fontFamily=Fira Code;fillColor=#fff2cc;strokeColor=#d6b656;" parent="1" vertex="1">
                    <mxGeometry x="160" y="2880" width="240" height="40" as="geometry"/>
                </mxCell>
                <mxCell id="236" value="&lt;font style=&quot;font-size: 24px;&quot;&gt;1, &quot;one&quot;&lt;/font&gt;" style="rounded=0;whiteSpace=wrap;html=1;fontFamily=Fira Code;fillColor=#d5e8d4;strokeColor=#82b366;" parent="1" vertex="1">
                    <mxGeometry x="880" y="2760" width="160" height="40" as="geometry"/>
                </mxCell>
                <mxCell id="237" value="&lt;span style=&quot;color: rgb(0, 0, 0); font-size: 24px;&quot;&gt;idx: 11&lt;/span&gt;" style="rounded=0;whiteSpace=wrap;html=1;fontFamily=Fira Code;fillColor=#dae8fc;strokeColor=#6c8ebf;" parent="1" vertex="1">
                    <mxGeometry y="3160" width="120" height="40" as="geometry"/>
                </mxCell>
                <mxCell id="238" value="&lt;span style=&quot;color: rgb(0, 0, 0); font-size: 24px;&quot;&gt;idx: 10&lt;/span&gt;" style="rounded=0;whiteSpace=wrap;html=1;fontFamily=Fira Code;fillColor=#dae8fc;strokeColor=#6c8ebf;" parent="1" vertex="1">
                    <mxGeometry y="3120" width="120" height="40" as="geometry"/>
                </mxCell>
                <mxCell id="239" value="&lt;span style=&quot;color: rgb(0, 0, 0); font-size: 24px;&quot;&gt;idx: 12&lt;/span&gt;" style="rounded=0;whiteSpace=wrap;html=1;fontFamily=Fira Code;fillColor=#dae8fc;strokeColor=#6c8ebf;" parent="1" vertex="1">
                    <mxGeometry y="3200" width="120" height="40" as="geometry"/>
                </mxCell>
                <mxCell id="240" value="&lt;span style=&quot;color: rgb(0, 0, 0); font-size: 24px;&quot;&gt;idx: 8&lt;/span&gt;" style="rounded=0;whiteSpace=wrap;html=1;fontFamily=Fira Code;fillColor=#dae8fc;strokeColor=#6c8ebf;" parent="1" vertex="1">
                    <mxGeometry y="3040" width="120" height="40" as="geometry"/>
                </mxCell>
                <mxCell id="241" value="&lt;span style=&quot;color: rgb(0, 0, 0); font-size: 24px;&quot;&gt;idx: 7&lt;/span&gt;" style="rounded=0;whiteSpace=wrap;html=1;fontFamily=Fira Code;fillColor=#dae8fc;strokeColor=#6c8ebf;" parent="1" vertex="1">
                    <mxGeometry y="3000" width="120" height="40" as="geometry"/>
                </mxCell>
                <mxCell id="242" value="&lt;span style=&quot;color: rgb(0, 0, 0); font-size: 24px;&quot;&gt;idx: 9&lt;/span&gt;" style="rounded=0;whiteSpace=wrap;html=1;fontFamily=Fira Code;fillColor=#dae8fc;strokeColor=#6c8ebf;" parent="1" vertex="1">
                    <mxGeometry y="3080" width="120" height="40" as="geometry"/>
                </mxCell>
                <mxCell id="243" value="&lt;span style=&quot;color: rgb(0, 0, 0); font-size: 24px;&quot;&gt;idx: 5&lt;/span&gt;" style="rounded=0;whiteSpace=wrap;html=1;fontFamily=Fira Code;fillColor=#dae8fc;strokeColor=#6c8ebf;" parent="1" vertex="1">
                    <mxGeometry y="2920" width="120" height="40" as="geometry"/>
                </mxCell>
                <mxCell id="263" style="edgeStyle=none;html=1;entryX=0;entryY=0.5;entryDx=0;entryDy=0;" parent="1" source="244" target="235" edge="1">
                    <mxGeometry relative="1" as="geometry"/>
                </mxCell>
                <mxCell id="244" value="&lt;span style=&quot;color: rgb(0, 0, 0); font-size: 24px;&quot;&gt;idx: 4&lt;/span&gt;" style="rounded=0;whiteSpace=wrap;html=1;fontFamily=Fira Code;fillColor=#dae8fc;strokeColor=#6c8ebf;" parent="1" vertex="1">
                    <mxGeometry y="2880" width="120" height="40" as="geometry"/>
                </mxCell>
                <mxCell id="245" value="&lt;span style=&quot;color: rgb(0, 0, 0); font-size: 24px;&quot;&gt;idx: 6&lt;/span&gt;" style="rounded=0;whiteSpace=wrap;html=1;fontFamily=Fira Code;fillColor=#dae8fc;strokeColor=#6c8ebf;" parent="1" vertex="1">
                    <mxGeometry y="2960" width="120" height="40" as="geometry"/>
                </mxCell>
                <mxCell id="246" value="&lt;span style=&quot;color: rgb(0, 0, 0); font-size: 24px;&quot;&gt;idx: 2&lt;/span&gt;" style="rounded=0;whiteSpace=wrap;html=1;fontFamily=Fira Code;fillColor=#dae8fc;strokeColor=#6c8ebf;" parent="1" vertex="1">
                    <mxGeometry y="2800" width="120" height="40" as="geometry"/>
                </mxCell>
                <mxCell id="261" style="edgeStyle=none;html=1;entryX=0;entryY=0.5;entryDx=0;entryDy=0;" parent="1" source="248" target="234" edge="1">
                    <mxGeometry relative="1" as="geometry">
                        <mxPoint x="250" y="2790" as="targetPoint"/>
                    </mxGeometry>
                </mxCell>
                <mxCell id="248" value="&lt;span style=&quot;color: rgb(0, 0, 0); font-size: 24px;&quot;&gt;idx: 1&lt;/span&gt;" style="rounded=0;whiteSpace=wrap;html=1;fontFamily=Fira Code;fillColor=#dae8fc;strokeColor=#6c8ebf;" parent="1" vertex="1">
                    <mxGeometry y="2760" width="120" height="40" as="geometry"/>
                </mxCell>
                <mxCell id="249" value="&lt;span style=&quot;color: rgb(0, 0, 0); font-size: 24px;&quot;&gt;idx: 3&lt;/span&gt;" style="rounded=0;whiteSpace=wrap;html=1;fontFamily=Fira Code;fillColor=#dae8fc;strokeColor=#6c8ebf;" parent="1" vertex="1">
                    <mxGeometry y="2840" width="120" height="40" as="geometry"/>
                </mxCell>
                <mxCell id="250" value="&lt;span style=&quot;color: rgb(0, 0, 0); font-size: 24px;&quot;&gt;idx: 0&lt;/span&gt;" style="rounded=0;whiteSpace=wrap;html=1;fontFamily=Fira Code;fillColor=#dae8fc;strokeColor=#6c8ebf;" parent="1" vertex="1">
                    <mxGeometry y="2720" width="120" height="40" as="geometry"/>
                </mxCell>
                <mxCell id="251" value="_M_buckets" style="text;html=1;align=center;verticalAlign=middle;whiteSpace=wrap;rounded=0;fontSize=36;fontFamily=Fira Code;" parent="1" vertex="1">
                    <mxGeometry x="-190" y="2690" width="160" height="30" as="geometry"/>
                </mxCell>
                <mxCell id="252" value="&lt;font style=&quot;font-size: 24px;&quot;&gt;nullptr&lt;/font&gt;" style="rounded=0;whiteSpace=wrap;html=1;fontFamily=Fira Code;fillColor=#f5f5f5;fontColor=#333333;strokeColor=#666666;" parent="1" vertex="1">
                    <mxGeometry x="1120" y="2760" width="120" height="40" as="geometry"/>
                </mxCell>
                <mxCell id="253" value="__node" style="rounded=0;whiteSpace=wrap;html=1;fillColor=#f8cecc;strokeColor=#b85450;fontSize=24;fontFamily=Fira Code;" parent="1" vertex="1">
                    <mxGeometry x="560" y="2840" width="200" height="40" as="geometry"/>
                </mxCell>
                <mxCell id="255" style="edgeStyle=none;html=1;entryX=0;entryY=0.5;entryDx=0;entryDy=0;" parent="1" source="256" target="252" edge="1">
                    <mxGeometry relative="1" as="geometry"/>
                </mxCell>
                <mxCell id="256" value="&lt;font face=&quot;Fira Code&quot; style=&quot;font-size: 24px;&quot;&gt;nxt&lt;/font&gt;" style="rounded=0;whiteSpace=wrap;html=1;fillColor=#e1d5e7;strokeColor=#9673a6;" parent="1" vertex="1">
                    <mxGeometry x="1040" y="2760" width="40" height="40" as="geometry"/>
                </mxCell>
                <mxCell id="257" style="edgeStyle=none;html=1;exitX=1;exitY=0.5;exitDx=0;exitDy=0;entryX=0;entryY=0.5;entryDx=0;entryDy=0;" parent="1" source="258" target="236" edge="1">
                    <mxGeometry relative="1" as="geometry">
                        <mxPoint x="795" y="2750" as="targetPoint"/>
                    </mxGeometry>
                </mxCell>
                <mxCell id="258" value="&lt;font face=&quot;Fira Code&quot; style=&quot;font-size: 24px;&quot;&gt;nxt&lt;/font&gt;" style="rounded=0;whiteSpace=wrap;html=1;fillColor=#e1d5e7;strokeColor=#9673a6;" parent="1" vertex="1">
                    <mxGeometry x="720" y="2880" width="40" height="40" as="geometry"/>
                </mxCell>
                <mxCell id="294" style="edgeStyle=none;html=1;entryX=0;entryY=0.5;entryDx=0;entryDy=0;" parent="1" source="260" target="234" edge="1">
                    <mxGeometry relative="1" as="geometry"/>
                </mxCell>
                <mxCell id="260" value="&lt;font face=&quot;Fira Code&quot; style=&quot;font-size: 24px;&quot;&gt;nxt&lt;/font&gt;" style="rounded=0;whiteSpace=wrap;html=1;fillColor=#e1d5e7;strokeColor=#9673a6;" parent="1" vertex="1">
                    <mxGeometry x="400" y="2880" width="40" height="40" as="geometry"/>
                </mxCell>
                <mxCell id="264" value="&lt;font style=&quot;font-size: 24px;&quot;&gt;4, &quot;four&lt;/font&gt;&lt;span style=&quot;color: rgb(63, 63, 63); font-size: 24px; background-color: transparent;&quot;&gt;&quot;&lt;/span&gt;" style="rounded=0;whiteSpace=wrap;html=1;fontFamily=Fira Code;fillColor=#d5e8d4;strokeColor=#82b366;" parent="1" vertex="1">
                    <mxGeometry x="880" y="3640" width="160" height="40" as="geometry"/>
                </mxCell>
                <mxCell id="265" value="_M_before_begin" style="rounded=0;whiteSpace=wrap;html=1;fontSize=24;fontFamily=Fira Code;fillColor=#fff2cc;strokeColor=#d6b656;" parent="1" vertex="1">
                    <mxGeometry x="160" y="3800" width="240" height="40" as="geometry"/>
                </mxCell>
                <mxCell id="266" value="&lt;font style=&quot;font-size: 24px;&quot;&gt;1, &quot;one&quot;&lt;/font&gt;" style="rounded=0;whiteSpace=wrap;html=1;fontFamily=Fira Code;fillColor=#d5e8d4;strokeColor=#82b366;" parent="1" vertex="1">
                    <mxGeometry x="1200" y="3520" width="160" height="40" as="geometry"/>
                </mxCell>
                <mxCell id="267" value="&lt;span style=&quot;color: rgb(0, 0, 0); font-size: 24px;&quot;&gt;idx: 11&lt;/span&gt;" style="rounded=0;whiteSpace=wrap;html=1;fontFamily=Fira Code;fillColor=#dae8fc;strokeColor=#6c8ebf;" parent="1" vertex="1">
                    <mxGeometry y="3920" width="120" height="40" as="geometry"/>
                </mxCell>
                <mxCell id="268" value="&lt;span style=&quot;color: rgb(0, 0, 0); font-size: 24px;&quot;&gt;idx: 10&lt;/span&gt;" style="rounded=0;whiteSpace=wrap;html=1;fontFamily=Fira Code;fillColor=#dae8fc;strokeColor=#6c8ebf;" parent="1" vertex="1">
                    <mxGeometry y="3880" width="120" height="40" as="geometry"/>
                </mxCell>
                <mxCell id="269" value="&lt;span style=&quot;color: rgb(0, 0, 0); font-size: 24px;&quot;&gt;idx: 12&lt;/span&gt;" style="rounded=0;whiteSpace=wrap;html=1;fontFamily=Fira Code;fillColor=#dae8fc;strokeColor=#6c8ebf;" parent="1" vertex="1">
                    <mxGeometry y="3960" width="120" height="40" as="geometry"/>
                </mxCell>
                <mxCell id="300" style="edgeStyle=none;html=1;exitX=1;exitY=0.5;exitDx=0;exitDy=0;entryX=0;entryY=0.5;entryDx=0;entryDy=0;" parent="1" source="270" target="265" edge="1">
                    <mxGeometry relative="1" as="geometry"/>
                </mxCell>
                <mxCell id="270" value="&lt;span style=&quot;color: rgb(0, 0, 0); font-size: 24px;&quot;&gt;idx: 8&lt;/span&gt;" style="rounded=0;whiteSpace=wrap;html=1;fontFamily=Fira Code;fillColor=#dae8fc;strokeColor=#6c8ebf;" parent="1" vertex="1">
                    <mxGeometry y="3800" width="120" height="40" as="geometry"/>
                </mxCell>
                <mxCell id="271" value="&lt;span style=&quot;color: rgb(0, 0, 0); font-size: 24px;&quot;&gt;idx: 7&lt;/span&gt;" style="rounded=0;whiteSpace=wrap;html=1;fontFamily=Fira Code;fillColor=#dae8fc;strokeColor=#6c8ebf;" parent="1" vertex="1">
                    <mxGeometry y="3760" width="120" height="40" as="geometry"/>
                </mxCell>
                <mxCell id="272" value="&lt;span style=&quot;color: rgb(0, 0, 0); font-size: 24px;&quot;&gt;idx: 9&lt;/span&gt;" style="rounded=0;whiteSpace=wrap;html=1;fontFamily=Fira Code;fillColor=#dae8fc;strokeColor=#6c8ebf;" parent="1" vertex="1">
                    <mxGeometry y="3840" width="120" height="40" as="geometry"/>
                </mxCell>
                <mxCell id="273" value="&lt;span style=&quot;color: rgb(0, 0, 0); font-size: 24px;&quot;&gt;idx: 5&lt;/span&gt;" style="rounded=0;whiteSpace=wrap;html=1;fontFamily=Fira Code;fillColor=#dae8fc;strokeColor=#6c8ebf;" parent="1" vertex="1">
                    <mxGeometry y="3680" width="120" height="40" as="geometry"/>
                </mxCell>
                <mxCell id="299" style="edgeStyle=none;html=1;exitX=1;exitY=0.5;exitDx=0;exitDy=0;entryX=0;entryY=0.5;entryDx=0;entryDy=0;" parent="1" source="275" target="291" edge="1">
                    <mxGeometry relative="1" as="geometry"/>
                </mxCell>
                <mxCell id="275" value="&lt;span style=&quot;color: rgb(0, 0, 0); font-size: 24px;&quot;&gt;idx: 4&lt;/span&gt;" style="rounded=0;whiteSpace=wrap;html=1;fontFamily=Fira Code;fillColor=#dae8fc;strokeColor=#6c8ebf;" parent="1" vertex="1">
                    <mxGeometry y="3640" width="120" height="40" as="geometry"/>
                </mxCell>
                <mxCell id="276" value="&lt;span style=&quot;color: rgb(0, 0, 0); font-size: 24px;&quot;&gt;idx: 6&lt;/span&gt;" style="rounded=0;whiteSpace=wrap;html=1;fontFamily=Fira Code;fillColor=#dae8fc;strokeColor=#6c8ebf;" parent="1" vertex="1">
                    <mxGeometry y="3720" width="120" height="40" as="geometry"/>
                </mxCell>
                <mxCell id="277" value="&lt;span style=&quot;color: rgb(0, 0, 0); font-size: 24px;&quot;&gt;idx: 2&lt;/span&gt;" style="rounded=0;whiteSpace=wrap;html=1;fontFamily=Fira Code;fillColor=#dae8fc;strokeColor=#6c8ebf;" parent="1" vertex="1">
                    <mxGeometry y="3560" width="120" height="40" as="geometry"/>
                </mxCell>
                <mxCell id="278" style="edgeStyle=none;html=1;entryX=0;entryY=0.5;entryDx=0;entryDy=0;" parent="1" source="279" target="264" edge="1">
                    <mxGeometry relative="1" as="geometry">
                        <mxPoint x="250" y="3550" as="targetPoint"/>
                    </mxGeometry>
                </mxCell>
                <mxCell id="279" value="&lt;span style=&quot;color: rgb(0, 0, 0); font-size: 24px;&quot;&gt;idx: 1&lt;/span&gt;" style="rounded=0;whiteSpace=wrap;html=1;fontFamily=Fira Code;fillColor=#dae8fc;strokeColor=#6c8ebf;" parent="1" vertex="1">
                    <mxGeometry y="3520" width="120" height="40" as="geometry"/>
                </mxCell>
                <mxCell id="280" value="&lt;span style=&quot;color: rgb(0, 0, 0); font-size: 24px;&quot;&gt;idx: 3&lt;/span&gt;" style="rounded=0;whiteSpace=wrap;html=1;fontFamily=Fira Code;fillColor=#dae8fc;strokeColor=#6c8ebf;" parent="1" vertex="1">
                    <mxGeometry y="3600" width="120" height="40" as="geometry"/>
                </mxCell>
                <mxCell id="281" value="&lt;span style=&quot;color: rgb(0, 0, 0); font-size: 24px;&quot;&gt;idx: 0&lt;/span&gt;" style="rounded=0;whiteSpace=wrap;html=1;fontFamily=Fira Code;fillColor=#dae8fc;strokeColor=#6c8ebf;" parent="1" vertex="1">
                    <mxGeometry y="3480" width="120" height="40" as="geometry"/>
                </mxCell>
                <mxCell id="282" value="_M_buckets" style="text;html=1;align=center;verticalAlign=middle;whiteSpace=wrap;rounded=0;fontSize=36;fontFamily=Fira Code;" parent="1" vertex="1">
                    <mxGeometry x="-190" y="3450" width="160" height="30" as="geometry"/>
                </mxCell>
                <mxCell id="283" value="&lt;font style=&quot;font-size: 24px;&quot;&gt;nullptr&lt;/font&gt;" style="rounded=0;whiteSpace=wrap;html=1;fontFamily=Fira Code;fillColor=#f5f5f5;fontColor=#333333;strokeColor=#666666;" parent="1" vertex="1">
                    <mxGeometry x="1440" y="3520" width="120" height="40" as="geometry"/>
                </mxCell>
                <mxCell id="285" style="edgeStyle=none;html=1;entryX=0;entryY=0.5;entryDx=0;entryDy=0;" parent="1" source="286" target="283" edge="1">
                    <mxGeometry relative="1" as="geometry"/>
                </mxCell>
                <mxCell id="286" value="&lt;font face=&quot;Fira Code&quot; style=&quot;font-size: 24px;&quot;&gt;nxt&lt;/font&gt;" style="rounded=0;whiteSpace=wrap;html=1;fillColor=#e1d5e7;strokeColor=#9673a6;" parent="1" vertex="1">
                    <mxGeometry x="1360" y="3520" width="40" height="40" as="geometry"/>
                </mxCell>
                <mxCell id="287" style="edgeStyle=none;html=1;exitX=1;exitY=0.5;exitDx=0;exitDy=0;entryX=0;entryY=0.5;entryDx=0;entryDy=0;" parent="1" source="288" target="266" edge="1">
                    <mxGeometry relative="1" as="geometry">
                        <mxPoint x="1115" y="3630" as="targetPoint"/>
                    </mxGeometry>
                </mxCell>
                <mxCell id="288" value="&lt;font face=&quot;Fira Code&quot; style=&quot;font-size: 24px;&quot;&gt;nxt&lt;/font&gt;" style="rounded=0;whiteSpace=wrap;html=1;fillColor=#e1d5e7;strokeColor=#9673a6;" parent="1" vertex="1">
                    <mxGeometry x="1040" y="3640" width="40" height="40" as="geometry"/>
                </mxCell>
                <mxCell id="295" style="edgeStyle=none;html=1;exitX=1;exitY=0.5;exitDx=0;exitDy=0;entryX=0;entryY=0.5;entryDx=0;entryDy=0;" parent="1" source="290" target="291" edge="1">
                    <mxGeometry relative="1" as="geometry"/>
                </mxCell>
                <mxCell id="290" value="&lt;font face=&quot;Fira Code&quot; style=&quot;font-size: 24px;&quot;&gt;nxt&lt;/font&gt;" style="rounded=0;whiteSpace=wrap;html=1;fillColor=#e1d5e7;strokeColor=#9673a6;" parent="1" vertex="1">
                    <mxGeometry x="400" y="3800" width="40" height="40" as="geometry"/>
                </mxCell>
                <mxCell id="291" value="&lt;font style=&quot;font-size: 24px;&quot;&gt;8, &quot;eight&lt;/font&gt;&lt;span style=&quot;color: rgb(63, 63, 63); font-size: 24px; background-color: transparent;&quot;&gt;&quot;&lt;/span&gt;" style="rounded=0;whiteSpace=wrap;html=1;fontFamily=Fira Code;fillColor=#f8cecc;strokeColor=#b85450;" parent="1" vertex="1">
                    <mxGeometry x="560" y="3800" width="160" height="40" as="geometry"/>
                </mxCell>
                <mxCell id="292" value="__node" style="rounded=0;whiteSpace=wrap;html=1;fillColor=#f8cecc;strokeColor=#b85450;fontSize=24;fontFamily=Fira Code;" parent="1" vertex="1">
                    <mxGeometry x="560" y="3760" width="200" height="40" as="geometry"/>
                </mxCell>
                <mxCell id="297" style="edgeStyle=none;html=1;exitX=1;exitY=0.5;exitDx=0;exitDy=0;entryX=0;entryY=0.5;entryDx=0;entryDy=0;" parent="1" source="293" target="264" edge="1">
                    <mxGeometry relative="1" as="geometry"/>
                </mxCell>
                <mxCell id="293" value="&lt;font face=&quot;Fira Code&quot; style=&quot;font-size: 24px;&quot;&gt;nxt&lt;/font&gt;" style="rounded=0;whiteSpace=wrap;html=1;fillColor=#e1d5e7;strokeColor=#9673a6;" parent="1" vertex="1">
                    <mxGeometry x="720" y="3800" width="40" height="40" as="geometry"/>
                </mxCell>
                <mxCell id="301" value="&lt;span style=&quot;font-size: 24px;&quot;&gt;设置桶中指针_M_buckets[1]指向链表的前驱节点_M_before_begin&lt;/span&gt;" style="text;html=1;align=center;verticalAlign=middle;resizable=0;points=[];autosize=1;strokeColor=none;fillColor=none;" parent="1" vertex="1">
                    <mxGeometry x="160" y="1120" width="730" height="40" as="geometry"/>
                </mxCell>
                <mxCell id="302" value="&lt;span style=&quot;font-size: 24px;&quot;&gt;插入新节点(4, &quot;four&quot;)，头插法，插入到_M_before_begin之后，节点1之前&lt;/span&gt;" style="text;html=1;align=center;verticalAlign=middle;resizable=0;points=[];autosize=1;strokeColor=none;fillColor=none;" parent="1" vertex="1">
                    <mxGeometry x="160" y="1840" width="800" height="40" as="geometry"/>
                </mxCell>
                <mxCell id="303" value="&lt;font style=&quot;font-size: 24px;&quot;&gt;rehash之后，_M_before_begin为链表头节点的前驱节点，此时链表头节点是nullptr&lt;/font&gt;" style="text;html=1;align=center;verticalAlign=middle;resizable=0;points=[];autosize=1;strokeColor=none;fillColor=none;" parent="1" vertex="1">
                    <mxGeometry x="160" y="-120" width="900" height="40" as="geometry"/>
                </mxCell>
                <mxCell id="304" value="&lt;span style=&quot;font-size: 24px;&quot;&gt;前头节点为nullptr，不需要更新&lt;/span&gt;" style="text;html=1;align=center;verticalAlign=middle;resizable=0;points=[];autosize=1;strokeColor=none;fillColor=none;" parent="1" vertex="1">
                    <mxGeometry x="160" y="450" width="350" height="40" as="geometry"/>
                </mxCell>
                <mxCell id="305" value="&lt;span style=&quot;font-size: 24px;&quot;&gt;前头节点为(1, &quot;one&quot;)，不为nullptr，需要更新&lt;/span&gt;" style="text;html=1;align=center;verticalAlign=middle;resizable=0;points=[];autosize=1;strokeColor=none;fillColor=none;" parent="1" vertex="1">
                    <mxGeometry x="160" y="1920" width="500" height="40" as="geometry"/>
                </mxCell>
                <mxCell id="306" value="&lt;span style=&quot;font-size: 24px;&quot;&gt;调整前头节点&lt;/span&gt;" style="text;html=1;align=center;verticalAlign=middle;resizable=0;points=[];autosize=1;strokeColor=none;fillColor=none;" parent="1" vertex="1">
                    <mxGeometry x="160" y="2680" width="170" height="40" as="geometry"/>
                </mxCell>
                <mxCell id="307" value="&lt;span style=&quot;font-size: 24px;&quot;&gt;设置_M_buckets[4]指向链表前驱节点_M_before_begin&lt;/span&gt;" style="text;html=1;align=center;verticalAlign=middle;resizable=0;points=[];autosize=1;strokeColor=none;fillColor=none;" parent="1" vertex="1">
                    <mxGeometry x="160" y="2610" width="610" height="40" as="geometry"/>
                </mxCell>
                <mxCell id="308" value="&lt;font style=&quot;font-size: 24px;&quot;&gt;4, &quot;four&lt;/font&gt;&lt;span style=&quot;color: rgb(63, 63, 63); font-size: 24px; background-color: transparent;&quot;&gt;&quot;&lt;/span&gt;" style="rounded=0;whiteSpace=wrap;html=1;fontFamily=Fira Code;fillColor=#d5e8d4;strokeColor=#82b366;" parent="1" vertex="1">
                    <mxGeometry x="1200" y="4440" width="160" height="40" as="geometry"/>
                </mxCell>
                <mxCell id="309" value="_M_before_begin" style="rounded=0;whiteSpace=wrap;html=1;fontSize=24;fontFamily=Fira Code;fillColor=#fff2cc;strokeColor=#d6b656;" parent="1" vertex="1">
                    <mxGeometry x="160" y="4760" width="240" height="40" as="geometry"/>
                </mxCell>
                <mxCell id="310" value="&lt;font style=&quot;font-size: 24px;&quot;&gt;1, &quot;one&quot;&lt;/font&gt;" style="rounded=0;whiteSpace=wrap;html=1;fontFamily=Fira Code;fillColor=#d5e8d4;strokeColor=#82b366;" parent="1" vertex="1">
                    <mxGeometry x="1520" y="4320" width="160" height="40" as="geometry"/>
                </mxCell>
                <mxCell id="311" value="&lt;span style=&quot;color: rgb(0, 0, 0); font-size: 24px;&quot;&gt;idx: 11&lt;/span&gt;" style="rounded=0;whiteSpace=wrap;html=1;fontFamily=Fira Code;fillColor=#dae8fc;strokeColor=#6c8ebf;" parent="1" vertex="1">
                    <mxGeometry y="4720" width="120" height="40" as="geometry"/>
                </mxCell>
                <mxCell id="312" value="&lt;span style=&quot;color: rgb(0, 0, 0); font-size: 24px;&quot;&gt;idx: 10&lt;/span&gt;" style="rounded=0;whiteSpace=wrap;html=1;fontFamily=Fira Code;fillColor=#dae8fc;strokeColor=#6c8ebf;" parent="1" vertex="1">
                    <mxGeometry y="4680" width="120" height="40" as="geometry"/>
                </mxCell>
                <mxCell id="343" style="edgeStyle=none;html=1;exitX=1;exitY=0.5;exitDx=0;exitDy=0;entryX=0;entryY=0.5;entryDx=0;entryDy=0;" parent="1" source="313" target="309" edge="1">
                    <mxGeometry relative="1" as="geometry"/>
                </mxCell>
                <mxCell id="313" value="&lt;span style=&quot;color: rgb(0, 0, 0); font-size: 24px;&quot;&gt;idx: 12&lt;/span&gt;" style="rounded=0;whiteSpace=wrap;html=1;fontFamily=Fira Code;fillColor=#dae8fc;strokeColor=#6c8ebf;" parent="1" vertex="1">
                    <mxGeometry y="4760" width="120" height="40" as="geometry"/>
                </mxCell>
                <mxCell id="314" style="edgeStyle=none;html=1;exitX=1;exitY=0.5;exitDx=0;exitDy=0;entryX=0;entryY=0.5;entryDx=0;entryDy=0;" parent="1" source="315" target="339" edge="1">
                    <mxGeometry relative="1" as="geometry"/>
                </mxCell>
                <mxCell id="315" value="&lt;span style=&quot;color: rgb(0, 0, 0); font-size: 24px;&quot;&gt;idx: 8&lt;/span&gt;" style="rounded=0;whiteSpace=wrap;html=1;fontFamily=Fira Code;fillColor=#dae8fc;strokeColor=#6c8ebf;" parent="1" vertex="1">
                    <mxGeometry y="4600" width="120" height="40" as="geometry"/>
                </mxCell>
                <mxCell id="316" value="&lt;span style=&quot;color: rgb(0, 0, 0); font-size: 24px;&quot;&gt;idx: 7&lt;/span&gt;" style="rounded=0;whiteSpace=wrap;html=1;fontFamily=Fira Code;fillColor=#dae8fc;strokeColor=#6c8ebf;" parent="1" vertex="1">
                    <mxGeometry y="4560" width="120" height="40" as="geometry"/>
                </mxCell>
                <mxCell id="317" value="&lt;span style=&quot;color: rgb(0, 0, 0); font-size: 24px;&quot;&gt;idx: 9&lt;/span&gt;" style="rounded=0;whiteSpace=wrap;html=1;fontFamily=Fira Code;fillColor=#dae8fc;strokeColor=#6c8ebf;" parent="1" vertex="1">
                    <mxGeometry y="4640" width="120" height="40" as="geometry"/>
                </mxCell>
                <mxCell id="318" value="&lt;span style=&quot;color: rgb(0, 0, 0); font-size: 24px;&quot;&gt;idx: 5&lt;/span&gt;" style="rounded=0;whiteSpace=wrap;html=1;fontFamily=Fira Code;fillColor=#dae8fc;strokeColor=#6c8ebf;" parent="1" vertex="1">
                    <mxGeometry y="4480" width="120" height="40" as="geometry"/>
                </mxCell>
                <mxCell id="319" style="edgeStyle=none;html=1;exitX=1;exitY=0.5;exitDx=0;exitDy=0;entryX=0;entryY=0.5;entryDx=0;entryDy=0;" parent="1" source="320" target="335" edge="1">
                    <mxGeometry relative="1" as="geometry"/>
                </mxCell>
                <mxCell id="320" value="&lt;span style=&quot;color: rgb(0, 0, 0); font-size: 24px;&quot;&gt;idx: 4&lt;/span&gt;" style="rounded=0;whiteSpace=wrap;html=1;fontFamily=Fira Code;fillColor=#dae8fc;strokeColor=#6c8ebf;" parent="1" vertex="1">
                    <mxGeometry y="4440" width="120" height="40" as="geometry"/>
                </mxCell>
                <mxCell id="321" value="&lt;span style=&quot;color: rgb(0, 0, 0); font-size: 24px;&quot;&gt;idx: 6&lt;/span&gt;" style="rounded=0;whiteSpace=wrap;html=1;fontFamily=Fira Code;fillColor=#dae8fc;strokeColor=#6c8ebf;" parent="1" vertex="1">
                    <mxGeometry y="4520" width="120" height="40" as="geometry"/>
                </mxCell>
                <mxCell id="322" value="&lt;span style=&quot;color: rgb(0, 0, 0); font-size: 24px;&quot;&gt;idx: 2&lt;/span&gt;" style="rounded=0;whiteSpace=wrap;html=1;fontFamily=Fira Code;fillColor=#dae8fc;strokeColor=#6c8ebf;" parent="1" vertex="1">
                    <mxGeometry y="4360" width="120" height="40" as="geometry"/>
                </mxCell>
                <mxCell id="323" style="edgeStyle=none;html=1;entryX=0;entryY=0.5;entryDx=0;entryDy=0;" parent="1" source="324" target="308" edge="1">
                    <mxGeometry relative="1" as="geometry">
                        <mxPoint x="250" y="4350" as="targetPoint"/>
                    </mxGeometry>
                </mxCell>
                <mxCell id="324" value="&lt;span style=&quot;color: rgb(0, 0, 0); font-size: 24px;&quot;&gt;idx: 1&lt;/span&gt;" style="rounded=0;whiteSpace=wrap;html=1;fontFamily=Fira Code;fillColor=#dae8fc;strokeColor=#6c8ebf;" parent="1" vertex="1">
                    <mxGeometry y="4320" width="120" height="40" as="geometry"/>
                </mxCell>
                <mxCell id="325" value="&lt;span style=&quot;color: rgb(0, 0, 0); font-size: 24px;&quot;&gt;idx: 3&lt;/span&gt;" style="rounded=0;whiteSpace=wrap;html=1;fontFamily=Fira Code;fillColor=#dae8fc;strokeColor=#6c8ebf;" parent="1" vertex="1">
                    <mxGeometry y="4400" width="120" height="40" as="geometry"/>
                </mxCell>
                <mxCell id="326" value="&lt;span style=&quot;color: rgb(0, 0, 0); font-size: 24px;&quot;&gt;idx: 0&lt;/span&gt;" style="rounded=0;whiteSpace=wrap;html=1;fontFamily=Fira Code;fillColor=#dae8fc;strokeColor=#6c8ebf;" parent="1" vertex="1">
                    <mxGeometry y="4280" width="120" height="40" as="geometry"/>
                </mxCell>
                <mxCell id="327" value="_M_buckets" style="text;html=1;align=center;verticalAlign=middle;whiteSpace=wrap;rounded=0;fontSize=36;fontFamily=Fira Code;" parent="1" vertex="1">
                    <mxGeometry x="-190" y="4250" width="160" height="30" as="geometry"/>
                </mxCell>
                <mxCell id="328" value="&lt;font style=&quot;font-size: 24px;&quot;&gt;nullptr&lt;/font&gt;" style="rounded=0;whiteSpace=wrap;html=1;fontFamily=Fira Code;fillColor=#f5f5f5;fontColor=#333333;strokeColor=#666666;" parent="1" vertex="1">
                    <mxGeometry x="1760" y="4320" width="120" height="40" as="geometry"/>
                </mxCell>
                <mxCell id="329" style="edgeStyle=none;html=1;entryX=0;entryY=0.5;entryDx=0;entryDy=0;" parent="1" source="330" target="328" edge="1">
                    <mxGeometry relative="1" as="geometry"/>
                </mxCell>
                <mxCell id="330" value="&lt;font face=&quot;Fira Code&quot; style=&quot;font-size: 24px;&quot;&gt;nxt&lt;/font&gt;" style="rounded=0;whiteSpace=wrap;html=1;fillColor=#e1d5e7;strokeColor=#9673a6;" parent="1" vertex="1">
                    <mxGeometry x="1680" y="4320" width="40" height="40" as="geometry"/>
                </mxCell>
                <mxCell id="331" style="edgeStyle=none;html=1;exitX=1;exitY=0.5;exitDx=0;exitDy=0;entryX=0;entryY=0.5;entryDx=0;entryDy=0;" parent="1" source="332" target="310" edge="1">
                    <mxGeometry relative="1" as="geometry">
                        <mxPoint x="1435" y="4430" as="targetPoint"/>
                    </mxGeometry>
                </mxCell>
                <mxCell id="332" value="&lt;font face=&quot;Fira Code&quot; style=&quot;font-size: 24px;&quot;&gt;nxt&lt;/font&gt;" style="rounded=0;whiteSpace=wrap;html=1;fillColor=#e1d5e7;strokeColor=#9673a6;" parent="1" vertex="1">
                    <mxGeometry x="1360" y="4440" width="40" height="40" as="geometry"/>
                </mxCell>
                <mxCell id="333" style="edgeStyle=none;html=1;exitX=1;exitY=0.5;exitDx=0;exitDy=0;entryX=0;entryY=0.5;entryDx=0;entryDy=0;" parent="1" source="334" target="339" edge="1">
                    <mxGeometry relative="1" as="geometry"/>
                </mxCell>
                <mxCell id="334" value="&lt;font face=&quot;Fira Code&quot; style=&quot;font-size: 24px;&quot;&gt;nxt&lt;/font&gt;" style="rounded=0;whiteSpace=wrap;html=1;fillColor=#e1d5e7;strokeColor=#9673a6;" parent="1" vertex="1">
                    <mxGeometry x="400" y="4760" width="40" height="40" as="geometry"/>
                </mxCell>
                <mxCell id="335" value="&lt;font style=&quot;font-size: 24px;&quot;&gt;8, &quot;eight&lt;/font&gt;&lt;span style=&quot;color: rgb(63, 63, 63); font-size: 24px; background-color: transparent;&quot;&gt;&quot;&lt;/span&gt;" style="rounded=0;whiteSpace=wrap;html=1;fontFamily=Fira Code;fillColor=#d5e8d4;strokeColor=#82b366;" parent="1" vertex="1">
                    <mxGeometry x="880" y="4600" width="160" height="40" as="geometry"/>
                </mxCell>
                <mxCell id="337" style="edgeStyle=none;html=1;exitX=1;exitY=0.5;exitDx=0;exitDy=0;entryX=0;entryY=0.5;entryDx=0;entryDy=0;" parent="1" source="338" target="308" edge="1">
                    <mxGeometry relative="1" as="geometry"/>
                </mxCell>
                <mxCell id="338" value="&lt;font face=&quot;Fira Code&quot; style=&quot;font-size: 24px;&quot;&gt;nxt&lt;/font&gt;" style="rounded=0;whiteSpace=wrap;html=1;fillColor=#e1d5e7;strokeColor=#9673a6;" parent="1" vertex="1">
                    <mxGeometry x="1040" y="4600" width="40" height="40" as="geometry"/>
                </mxCell>
                <mxCell id="339" value="&lt;font style=&quot;font-size: 20px;&quot;&gt;&lt;font style=&quot;&quot;&gt;12, &quot;twelve&lt;/font&gt;&lt;span style=&quot;color: rgb(63, 63, 63); background-color: transparent;&quot;&gt;&quot;&lt;/span&gt;&lt;/font&gt;" style="rounded=0;whiteSpace=wrap;html=1;fontFamily=Fira Code;fillColor=#f8cecc;strokeColor=#b85450;" parent="1" vertex="1">
                    <mxGeometry x="560" y="4760" width="160" height="40" as="geometry"/>
                </mxCell>
                <mxCell id="340" value="__node" style="rounded=0;whiteSpace=wrap;html=1;fillColor=#f8cecc;strokeColor=#b85450;fontSize=24;fontFamily=Fira Code;" parent="1" vertex="1">
                    <mxGeometry x="560" y="4720" width="200" height="40" as="geometry"/>
                </mxCell>
                <mxCell id="342" style="edgeStyle=none;html=1;exitX=1;exitY=0.5;exitDx=0;exitDy=0;entryX=0;entryY=0.5;entryDx=0;entryDy=0;" parent="1" source="341" target="335" edge="1">
                    <mxGeometry relative="1" as="geometry"/>
                </mxCell>
                <mxCell id="341" value="&lt;font face=&quot;Fira Code&quot; style=&quot;font-size: 24px;&quot;&gt;nxt&lt;/font&gt;" style="rounded=0;whiteSpace=wrap;html=1;fillColor=#e1d5e7;strokeColor=#9673a6;" parent="1" vertex="1">
                    <mxGeometry x="720" y="4760" width="40" height="40" as="geometry"/>
                </mxCell>
            </root>
        </mxGraphModel>
    </diagram>
</mxfile>